<svg width="264" height="216" viewBox="0 0 264 216" fill="none" xmlns="http://www.w3.org/2000/svg">
<path d="M126.343 1.37127C124.924 2.2225 124.108 3.74763 124.108 5.52103C124.108 7.79098 125.066 9.10329 130.422 14.2462C133.756 17.4383 133.046 17.5092 137.373 13.6077C140.778 10.522 142.765 7.96832 143.084 6.26585C143.616 3.49935 141.239 0.661909 138.402 0.661909C137.09 0.661909 135.21 1.83235 134.465 3.14467C134.146 3.71216 133.791 4.20871 133.685 4.20871C133.578 4.20871 133.153 3.64122 132.692 2.93186C131.273 0.768312 128.471 0.0589523 126.343 1.37127Z" fill="white"/>
<path d="M98.0745 8.14571C97.1524 8.85507 97.1524 8.926 97.1524 13.2886V17.6866H90.5908C84.0647 17.6866 83.9937 17.6866 83.1425 18.5733C82.0075 19.6728 82.043 21.6945 83.2134 23.0068C83.3199 23.1132 86.441 23.2551 90.1652 23.3615L96.975 23.5388L97.0814 26.6245L97.1878 29.7457H90.6972C83.6391 29.7457 82.6105 29.994 82.6105 31.661C82.6105 32.725 83.0361 33.1861 87.2213 36.8748C89.0657 38.5063 91.8322 40.9536 93.3573 42.2659C97.578 46.0255 99.4223 47.4797 99.8834 47.4797C100.344 47.4797 103.537 44.8196 110.276 38.8255C116.092 33.6472 117.369 32.4058 117.369 31.9093C117.369 31.661 116.979 31.0935 116.482 30.6324C115.631 29.7457 115.56 29.7457 109.212 29.7457H102.792L102.898 26.6245L103.005 23.5388L109.814 23.3615C117.617 23.1487 117.83 23.0777 117.795 20.4886C117.759 17.8285 117.334 17.6866 109.566 17.6866H102.898L102.756 13.2176C102.65 9.03241 102.614 8.7132 101.799 8.07477C100.735 7.18807 99.245 7.22354 98.0745 8.14571ZM97.1524 35.6334V37.9388L96.1947 37.2295C94.847 36.13 92.1869 33.6472 92.1869 33.4699C92.1869 33.3635 93.3218 33.2925 94.6696 33.2925H97.1524V35.6334ZM107.332 33.931C106.977 34.2856 106.8 34.7113 106.906 34.8177C107.012 34.9595 106.977 34.995 106.835 34.8886C106.729 34.7822 105.948 35.2433 105.168 35.8817C102.792 37.8324 102.827 37.8324 102.827 35.4561V33.2925H105.381C107.793 33.2925 107.864 33.328 107.332 33.931Z" fill="white"/>
<path d="M38.4173 11.2669C35.367 13.395 32.7779 16.126 30.6498 19.4245C29.4439 21.3043 28.8409 21.9073 28.4153 21.8009C25.436 20.8787 22.3503 20.4176 18.9453 20.4176C14.3345 20.4176 13.6606 20.595 13.1286 21.8718C11.036 27.1565 10.504 34.7467 11.9581 38.7546C12.7384 40.9181 12.632 41.4147 11.3907 41.4502C10.5749 41.4502 5.71577 43.8265 4.0133 45.0679C2.09803 46.4511 1.3532 47.6925 1.77882 48.792C1.95616 49.2531 2.87833 50.7782 3.87143 52.2324C4.82907 53.7221 5.64483 54.9989 5.64483 55.1408C5.64483 55.2472 4.6872 56.6305 3.51675 58.1911C2.34631 59.7162 1.38867 61.1704 1.38867 61.3477C1.38867 62.731 4.90001 65.4265 9.29804 67.3773C11.6389 68.4059 11.9936 68.6896 11.8163 69.2926C11.7099 69.6827 11.3552 70.7822 11.0714 71.7753C10.433 73.9034 10.6458 79.0817 11.4971 82.8413C12.2064 85.998 12.5966 86.2108 18.0586 86.4236C21.2508 86.53 22.9532 86.3881 25.7552 85.8207C29.9759 84.9339 29.7631 84.9694 29.7631 85.466C29.7631 86.0689 32.4587 90.0059 33.9838 91.6019C35.4734 93.1625 39.3749 96.3547 40.971 97.3123C42.0705 97.9507 42.1059 97.9507 43.9858 96.9221C47.4262 95.0423 54.236 87.4876 54.236 85.5369C54.236 84.9339 54.4488 84.9339 57.6764 85.8207C60.0173 86.4591 61.0813 86.5655 64.77 86.4236C70.2321 86.2108 70.5158 86.0335 71.6153 82.3448C72.9277 77.9822 72.9986 72.2009 71.7572 69.0088C71.6153 68.6187 71.9345 68.3704 72.9277 68.0512C76.6163 66.8807 82.6104 62.9438 82.6104 61.7024C82.6104 61.5251 81.6528 59.9645 80.4823 58.2265C79.3119 56.5241 78.3543 54.9989 78.3543 54.8571C78.3543 54.7152 79.241 53.4029 80.305 51.9132C81.369 50.3881 82.2557 48.8275 82.2557 48.3664C82.2557 46.6994 76.9355 42.9753 72.6794 41.6275C71.6153 41.2728 70.6932 40.9536 70.6222 40.9181C70.5868 40.8827 70.9414 39.6058 71.438 38.1162C72.7503 34.2502 72.8922 31.6965 72.041 27.4048C71.1543 22.9359 70.4804 21.3398 69.3454 20.8787C67.2528 20.0984 62.3227 20.063 58.5986 20.8432C56.6124 21.2689 54.768 21.6945 54.4843 21.8009C54.1296 21.9073 53.4912 21.1625 52.4981 19.4955C49.8734 15.0265 43.9148 9.52895 41.7513 9.52895C41.2547 9.52895 39.7651 10.3092 38.4173 11.2669ZM44.1276 18.5378C45.1562 19.6019 46.433 21.3753 46.9651 22.4393C47.8518 24.2836 47.9227 24.6738 47.7808 27.8659C47.6035 31.9093 47.1069 33.1506 44.3404 36.3073C43.1345 37.6906 42.4961 38.7546 42.3542 39.7122C42.1769 40.7053 41.9286 41.0955 41.4675 41.0955C41.0064 41.0955 40.7936 40.7053 40.6163 39.7122C40.439 38.5773 39.9424 37.8324 37.9207 35.8817C34.6931 32.796 33.4872 30.4551 33.8419 28.0787C34.1256 25.9861 36.0764 21.9073 37.6015 20.0275C38.772 18.6442 41.3257 16.6226 41.8931 16.6226C42.1059 16.6226 43.0991 17.4738 44.1276 18.5378ZM23.7335 26.9437C26.0389 27.4048 28.699 28.8235 28.699 29.6393C28.699 30.0295 28.4862 30.1359 27.9187 29.9585C26.1099 29.391 24.0173 29.3201 23.2015 29.7457C22.0665 30.3487 21.4636 31.8383 21.9247 33.0442C22.3503 34.1792 23.0242 34.5339 25.5779 35.0304C29.834 35.8107 31.4301 37.4068 32.2458 41.8048C32.5296 43.259 32.4587 43.5428 31.2527 45.4226C29.8695 47.5861 29.4793 47.728 27.2449 47.125C26.4291 46.8768 25.436 46.1319 24.3365 44.8551C23.166 43.5073 22.1375 42.727 20.7187 42.1241C19.6547 41.6984 18.6971 41.06 18.6261 40.7763C17.3847 36.3428 16.9237 32.9733 17.101 30.0649C17.2074 28.327 17.4202 26.7309 17.5621 26.5181C17.8104 26.0925 20.1158 26.2699 23.7335 26.9437ZM66.0823 27.1565C67.0045 30.4905 66.5079 34.8886 64.8055 38.5063C63.8124 40.528 63.6705 40.7053 62.1099 41.0955C60.7621 41.4147 60.0173 41.9467 58.3148 43.791C56.6833 45.529 55.7611 46.2029 54.5552 46.5576L52.9237 47.0541L51.0439 44.9615L49.1996 42.8334L50.0863 40.8117C50.5828 39.7122 51.4695 36.9457 52.1079 34.7112C53.3493 30.2777 53.7749 29.3556 55.1582 28.4689C56.6833 27.4403 60.301 26.5891 63.174 26.5891C65.4794 26.5536 65.905 26.66 66.0823 27.1565ZM45.7946 47.6571C46.6459 48.2246 47.2133 48.9694 47.5326 49.8561C47.7808 50.6009 48.2774 51.6295 48.6675 52.1615C49.235 52.9418 49.3414 53.4384 49.1641 54.928C49.0577 55.9211 48.6321 57.127 48.2064 57.659C47.8163 58.1556 47.4971 58.9359 47.4971 59.397C47.4971 60.8512 43.0281 63.795 40.7936 63.795C39.8715 63.795 39.3394 63.5113 38.4882 62.5182C37.8853 61.8443 36.6084 60.3901 35.6153 59.2906L33.8419 57.3398V54.4315C33.8419 52.197 34.0192 51.2393 34.6222 50.1398L35.367 48.7211L35.899 49.998C36.8922 52.4452 39.3749 53.2255 40.6872 51.5585C41.2547 50.8137 41.3257 50.4236 41.0774 49.3241C40.6163 47.3024 40.6872 46.8413 41.5739 46.664C42.8508 46.4157 44.3759 46.7704 45.7946 47.6571ZM71.7927 47.8699C75.7296 49.1467 75.7296 49.1467 72.2538 52.729C68.9198 56.0984 68.3523 57.2334 69.2744 58.6521C69.9129 59.6453 70.7996 59.7517 72.573 59.1132C73.8498 58.6521 73.9208 58.6521 74.24 59.8226C74.4882 60.532 74.2754 60.7093 72.502 61.5251C71.4025 62.0216 69.4518 62.6246 68.1749 62.8374L65.8341 63.263L64.5217 61.7024C62.6419 59.5388 61.436 58.8295 59.5207 58.8295C58.634 58.8295 57.1799 58.5812 56.2932 58.262L54.6616 57.73L54.839 55.531C54.9454 54.3251 55.0518 53.2965 55.0872 53.261C55.1227 53.2255 56.1513 53.0482 57.3927 52.8354C60.372 52.3388 62.2873 51.3812 64.9828 48.9339C67.5365 46.6285 67.8203 46.593 71.7927 47.8699ZM13.9089 47.6216C14.1926 48.4019 17.8458 50.9556 20.0448 51.9842C21.0734 52.4452 23.2724 53.0127 24.9394 53.261L27.9187 53.6512L28.0606 55.8856L28.167 58.1201L26.9256 58.5103C26.2517 58.6876 24.7976 58.9714 23.6626 59.0778C21.8537 59.2551 21.4636 59.4679 19.3355 61.3832L17.0301 63.4758L14.4409 62.731C11.6389 61.8797 9.19163 60.6738 9.19163 60.1063C9.19163 59.929 9.43991 59.5034 9.75912 59.1487C10.2202 58.6521 10.6813 58.5457 11.8517 58.7231C13.1641 58.9004 13.4123 58.794 13.9443 58.0847C15.1148 56.3822 14.7246 55.4246 11.6744 52.3034C10.1138 50.7073 8.83695 49.2531 8.83695 49.1113C8.83695 48.792 12.3483 47.1605 13.1286 47.1605C13.4478 47.125 13.8025 47.3379 13.9089 47.6216ZM33.0261 65.6394L34.1611 67.6256L33.1325 68.796C31.8557 70.3566 31.1818 71.9527 31.1818 73.5487C31.1818 75.1802 30.4724 76.528 28.9118 77.9113C27.2449 79.3655 24.6202 80.1458 20.5059 80.3586L17.101 80.5714L16.8882 79.4009C16.4626 77.3438 16.6399 73.7261 17.1719 72.4137C18.0941 70.2147 18.6616 69.8246 20.8251 69.8246C24.1946 69.8246 25.4005 69.2571 28.4153 66.1714C29.905 64.6108 31.3237 63.4403 31.5365 63.5113C31.7493 63.5822 32.4232 64.5398 33.0261 65.6394ZM54.2005 64.7881C54.9099 65.5329 55.903 66.6325 56.4705 67.2354C57.57 68.5123 60.7267 69.8246 62.6774 69.8246C63.3868 69.8246 64.3444 69.931 64.7345 70.0374C66.3306 70.463 67.2528 76.528 66.1533 79.2236C65.6212 80.4295 65.5858 80.465 63.4932 80.465C59.3789 80.465 54.5907 78.9399 54.5907 77.663C54.5907 76.2088 52.2853 70.7113 50.7956 68.4768L49.1996 66.1714L50.5473 64.8236C51.2922 64.0433 52.1079 63.4403 52.3917 63.4403C52.6754 63.4403 53.4912 64.0433 54.2005 64.7881ZM43.2409 69.4699H44.5532L44.7306 72.9103C44.9434 76.8118 45.8301 79.3655 47.7808 81.5645L48.8803 82.8413L48.1355 84.2246C47.2843 85.8207 44.1276 89.7221 43.8793 89.4739C43.7729 89.4029 43.4892 89.5448 43.2409 89.864C42.9926 90.1477 42.567 90.396 42.2833 90.396C41.6449 90.396 39.7651 89.1192 38.9138 88.0906C36.7148 85.5369 35.438 83.4798 35.438 82.5576C35.438 82.3448 35.8636 81.6709 36.3601 81.0679C36.8567 80.5004 37.7434 79.0463 38.3109 77.8758C39.233 76.1024 39.4459 75.1802 39.5877 72.4137L39.8005 69.0443L40.8646 69.2571C41.4321 69.3635 42.4961 69.4699 43.2409 69.4699Z" fill="white"/>
<path d="M40.1556 20.8788C37.6019 21.9073 38.4531 26.199 41.2196 26.199C42.6383 26.199 43.0639 25.9152 43.7378 24.6384C44.4117 23.2906 43.8797 21.8009 42.461 21.0561C41.2196 20.4532 41.2196 20.4532 40.1556 20.8788Z" fill="white"/>
<path d="M57.3214 29.7457C56.5411 30.3487 56.3638 30.8098 56.3638 32.0511C56.3638 33.2925 56.5411 33.7536 57.2859 34.3211C57.818 34.7467 58.4919 35.0659 58.8465 35.0659C59.2012 35.0659 59.8751 34.7467 60.4071 34.3211C61.152 33.7536 61.3293 33.2925 61.3293 32.0866C61.3293 29.6038 59.1303 28.327 57.3214 29.7457Z" fill="white"/>
<path d="M162.024 11.9763C161.385 12.5083 161.208 12.9694 161.208 14.3527C161.243 17.0128 162.059 18.1832 164.861 19.6019C167.131 20.7724 167.734 21.3399 167.734 22.4748C167.734 22.7941 167.344 22.9005 166.351 22.7586C164.4 22.4748 163.3 22.8295 161.775 24.2128L160.463 25.4187L160.569 23.2197C160.711 20.4177 160.108 19.531 157.661 19.0699C154.575 18.5024 153.334 19.3182 153.866 21.6236C154.433 24.1773 156.1 25.667 158.867 26.199L160.108 26.4473L159.044 26.8729C158.122 27.2985 156.278 27.6177 152.234 28.1852C148.865 28.6817 149.468 32.2995 152.979 32.7251C153.795 32.8315 155.746 33.0088 157.377 33.1152L160.286 33.2926V31.3064V29.2847L161.101 30.4906C161.527 31.1645 162.768 32.1576 163.903 32.7606C166.386 34.0729 167.237 34.8532 167.557 36.0236C167.876 37.3359 167.521 38.0098 166.067 38.7901C162.981 40.4217 161.35 42.6561 161.35 45.2808C161.35 46.2029 162.804 47.8345 163.655 47.8345C164.648 47.8345 167.699 44.6424 168.763 42.4433L169.827 40.3507L170.571 42.0532C171.387 43.8975 173.373 46.1675 174.899 46.9832C178.02 48.6148 179.367 46.0256 177.417 42.1241C176.53 40.4217 176.14 40.067 173.976 38.9675C172.629 38.2936 171.458 37.5487 171.387 37.3005C171.316 37.0877 171.494 36.3428 171.777 35.6689C172.167 34.6758 172.593 34.3212 173.693 34.0374C175.572 33.5054 177.913 31.7675 178.516 30.3487L179.013 29.2138L179.048 31.129L179.084 33.0088L182.914 32.867C187.277 32.7251 189.369 31.9803 189.369 30.668C189.369 29.1783 188.625 28.7172 184.759 27.9369C180.325 27.0502 179.58 26.731 181.176 26.3763C181.815 26.2345 182.95 25.5251 183.73 24.8157C184.901 23.6808 185.113 23.2551 185.113 22.0492C185.113 21.2689 184.901 20.4177 184.652 20.2049C183.943 19.6374 182.134 19.3537 180.786 19.6019C179.119 19.9211 178.587 20.9497 178.623 23.8936C178.658 25.2413 178.587 26.128 178.481 25.8443C178.126 24.8512 176.495 23.3615 175.253 22.9714C174.579 22.7586 173.409 22.6876 172.664 22.7941C170.181 23.1842 171.139 21.3044 174.473 19.2827C177.027 17.7576 178.02 16.2325 178.02 14.0335C178.02 12.6502 177.878 12.2955 177.098 11.7635C176.211 11.196 176.104 11.196 174.899 11.8699C173.444 12.6502 170.359 16.6581 170.004 18.1832L169.791 19.2118L168.904 17.4739C167.628 14.9202 165.677 12.4019 164.506 11.8344C163.23 11.1605 163.017 11.1605 162.024 11.9763ZM166.883 26.0216C167.166 26.731 167.911 26.6955 169.011 25.9507C169.898 25.3832 169.968 25.3832 170.288 25.9507C170.678 26.6955 171.565 26.6955 172.487 26.0216C173.338 25.3832 174.367 25.6315 175.253 26.6955C176.104 27.7241 176.033 28.4335 174.969 29.7103C174.154 30.668 173.87 30.8098 172.841 30.597C171.813 30.4197 171.494 30.5261 170.536 31.4837C169.933 32.1221 169.401 32.5832 169.366 32.5123C168.16 30.5615 168.018 30.4551 166.847 30.4551C164.365 30.4551 162.875 27.866 164.365 26.199C165.109 25.3477 166.599 25.2768 166.883 26.0216Z" fill="white"/>
<path d="M206.394 20.8432C200.683 22.6875 196.676 26.589 195.009 31.9092C194.37 33.8954 194.335 35.3851 194.335 50.8491V67.6255L193.554 67.8383C192.065 68.2285 189.653 68.0511 188.447 67.4836C186.638 66.6324 185.822 65.391 185.822 63.5821C185.822 61.5959 186.851 60.7447 188.518 61.3831C189.901 61.8797 191.143 61.525 191.994 60.39C192.561 59.5743 192.597 59.2905 192.242 58.0491C191.675 56.1693 190.185 55.2826 187.596 55.2826C182.914 55.3181 179.686 58.7585 179.651 63.7595C179.615 66.5615 180.538 68.725 182.666 70.8531C184.936 73.123 187.418 74.1516 191.143 74.3644C194.335 74.5418 194.335 74.5418 194.335 75.4994C194.335 77.0245 196.356 80.6777 197.952 82.061C204.159 87.3457 215.119 84.9339 228.455 75.393C233.279 71.9526 236.116 69.4344 241.223 64.1851C247.147 58.1201 249.487 55.2472 252.325 50.4944C256.191 44.0747 257.539 39.393 256.829 34.7112C255.552 25.8796 248.849 20.1693 239.769 20.1693C235.265 20.1693 231.328 21.8718 227.923 25.2412L225.724 27.4402L223.667 25.2767C221.468 22.9713 218.524 21.2333 215.615 20.5594C213.133 19.992 208.593 20.1338 206.394 20.8432ZM216.077 27.5821C218.063 28.5397 220.333 30.7388 221.326 32.654L222 33.9664L213.665 34.0728C205.862 34.1792 205.33 34.2146 204.798 34.8885C203.911 36.059 203.769 37.1939 204.408 38.4708C204.727 39.1447 205.365 39.854 205.862 40.0314C206.358 40.2087 215.615 40.3861 228.278 40.3861C240.088 40.3861 249.878 40.457 249.948 40.5634C250.019 40.6343 249.7 41.592 249.204 42.656L248.281 44.6068L226.965 44.7132L205.613 44.8196L204.94 45.6708C204.266 46.4866 204.053 48.2954 204.478 49.4304C205.081 50.991 205.684 51.0265 225.369 51.0265C235.619 51.0265 243.99 51.1329 243.99 51.2393C243.99 51.3811 243.174 52.4097 242.181 53.5447L240.372 55.6373H229.838C218.949 55.6373 217.353 55.8146 216.679 57.056C216.183 57.9782 216.254 59.9644 216.786 60.6383C217.744 61.8797 218.666 62.0216 226.185 62.0216C230.264 62.0216 233.669 62.128 233.811 62.2344C234.201 62.6245 225.617 69.86 222.354 71.8462L221.078 72.6265L210.898 62.1989L200.719 51.7358V43.4363C200.719 33.8599 200.967 32.5831 203.344 29.923C205.436 27.5821 208.203 26.5181 211.714 26.6245C213.629 26.6954 214.835 26.9792 216.077 27.5821ZM243.742 27.121C246.437 28.0432 250.019 31.7319 250.019 33.6117C250.019 33.8954 247.005 34.0018 239.911 34.0018C234.343 34.0018 229.803 33.9309 229.803 33.8599C229.803 33.1506 230.76 31.59 232.002 30.2422C235.016 26.9437 239.663 25.7378 243.742 27.121ZM208.274 68.2285C212.104 72.1654 215.261 75.5703 215.261 75.7477C215.261 75.925 214.126 76.4925 212.778 77.0245C207.387 79.1171 204.408 79.1526 202.209 77.0955L200.896 75.925L200.79 68.4413C200.719 64.327 200.825 60.993 200.967 60.993C201.109 61.0284 204.408 64.2915 208.274 68.2285Z" fill="white"/>
<path d="M132.053 24.7801C130.386 25.454 130.137 26.3762 130.137 31.7319V36.7683L128.754 36.591C127.619 36.4491 127.371 36.5201 127.194 37.1585C127.087 37.5486 127.229 38.0452 127.513 38.2935C127.867 38.5772 128.009 39.5703 128.009 41.8403C128.009 44.9614 127.584 45.99 127.123 43.8974C126.91 43.0107 126.732 42.8334 125.952 42.9398C124.888 43.0462 124.959 42.5496 125.243 50.3171L125.349 52.6225L124.179 52.7289C122.122 52.9417 121.767 55.6373 123.789 55.6373C124.427 55.6373 124.462 55.992 124.462 61.3122C124.462 66.7388 124.427 66.9871 123.753 66.9871C123.115 66.9871 123.044 66.7388 123.044 64.2206C123.044 60.2836 121.625 58.1555 120.064 59.7516C119.603 60.2127 119.497 61.4895 119.462 67.7319C119.426 71.8107 119.391 75.2866 119.355 75.4639C119.284 76.1733 118.788 76.2797 118.788 75.6058C118.788 74.6482 118.433 74.3644 117.83 74.8255C117.475 75.1447 117.369 78.195 117.369 90.7861C117.369 99.3694 117.227 106.357 117.085 106.357C116.943 106.357 116.624 106.179 116.447 106.002C116.198 105.754 115.347 106.64 113.822 108.839C112.581 110.577 111.41 112.031 111.233 112.031C111.056 112.031 110.949 107.421 111.02 101.072C111.127 93.127 111.056 89.9704 110.772 89.6866C109.956 88.8708 109.034 89.4738 108.537 91.2117C108.254 92.1339 107.899 92.8787 107.722 92.8787C107.58 92.8787 107.438 91.1053 107.438 88.9418C107.438 85.5369 107.544 84.8984 108.147 84.1181C109.353 82.5575 108.998 80.1102 107.58 80.1102C106.977 80.1102 106.693 80.3585 106.516 80.9969C106.409 81.4935 106.055 81.8836 105.771 81.8836C104.92 81.8836 105.274 75.8186 106.161 74.8255C106.551 74.3999 106.693 73.8679 106.551 73.4068C106.303 72.5556 105.026 72.0945 104.494 72.6265C103.607 73.5132 103.43 72.8748 103.607 68.725C103.785 64.5753 103.749 64.3979 102.933 63.4048C101.763 62.0216 99.6704 61.9506 98.3935 63.2629C97.5423 64.0787 97.5068 64.327 97.5068 68.5831C97.5068 71.0304 97.4359 73.0166 97.3295 73.0166C97.2231 73.0166 96.8329 72.8393 96.4782 72.591C95.095 71.7398 93.9245 74.0807 95.2014 75.1447C95.5915 75.4639 95.7334 76.2797 95.6979 78.3014C95.6979 79.791 95.5561 81.3162 95.4142 81.6708C95.2014 82.2738 95.095 82.2029 94.6694 81.2098C94.0309 79.6137 92.825 79.791 92.3994 81.5644C92.1511 82.6285 92.2221 83.0896 92.8605 84.1181C93.4989 85.1467 93.6053 85.8561 93.6053 88.9063C93.6053 90.8571 93.4634 92.5595 93.3216 92.6659C93.1442 92.7723 92.8605 92.1339 92.6122 91.3181C92.2221 89.7575 91.5482 89.1901 90.626 89.5447C90.2004 89.7221 90.1295 91.0699 90.2713 98.128C90.4487 105.789 90.4132 106.463 89.9166 105.86C89.5974 105.47 89.3492 104.973 89.3492 104.761C89.3492 103.945 88.1432 103.235 87.3275 103.555L86.5117 103.838V122.282C86.5117 138.739 86.5827 140.725 87.0792 140.902C87.3984 141.009 96.4428 141.115 107.261 141.115H126.874L127.087 140.016C127.194 139.413 127.3 137.533 127.3 135.866C127.3 130.9 128.187 129.127 131.627 127.283C133.117 126.502 133.329 126.502 134.429 126.928C136.096 127.637 137.869 129.269 138.685 130.9C139.253 132 139.465 133.312 139.607 136.717L139.82 141.115L159.718 141.044L179.615 140.938L179.722 122.459C179.793 107.066 179.722 103.909 179.296 103.555C178.551 102.916 177.629 103.484 176.955 105.08C176.317 106.428 176.281 106.463 176.068 105.612C175.785 104.477 176.068 94.7585 176.423 93.5172C176.565 92.9851 176.565 91.8147 176.459 90.928C176.246 89.5447 176.104 89.3319 175.359 89.3319C174.401 89.3319 173.763 90.2541 173.763 91.6019C173.763 92.1694 173.55 92.5241 173.231 92.5241C172.805 92.5241 172.699 91.8502 172.699 88.6935C172.699 85.2886 172.77 84.7566 173.408 84.1891C174.118 83.5506 174.366 81.8482 173.905 80.6777C173.515 79.6492 172.096 80.0038 171.599 81.2452C171.138 82.3447 171.103 82.2383 170.997 79.0817C170.926 76.4925 171.032 75.6413 171.458 75.1447C172.699 73.7615 171.635 71.8817 170.039 72.591L169.152 73.0166V68.5477C169.152 64.327 169.117 64.0787 168.265 63.2629C167.131 62.0925 165.286 62.0925 163.938 63.2275C162.981 64.0432 162.981 64.0787 163.087 68.0157C163.123 70.1792 163.052 72.2718 162.945 72.6974C162.732 73.3713 162.662 73.3713 162.271 72.8038C161.952 72.4137 161.598 72.3073 161.065 72.4492C160.037 72.8038 159.682 74.258 160.427 75.1093C160.853 75.5703 160.995 76.457 160.995 78.5497C160.995 81.8127 160.569 82.8768 160.001 81.2098C159.611 80.1102 158.476 79.6846 157.98 80.4649C157.412 81.3516 157.696 83.5506 158.476 84.5792C159.257 85.6433 159.292 85.8915 159.008 89.1901C158.76 92.595 158.725 92.6659 158.334 91.3181C158.086 90.4669 157.625 89.7575 157.129 89.5802C155.532 88.8354 155.497 89.2965 155.639 101.072C155.71 107.101 155.603 112.031 155.462 112.031C155.284 112.031 154.256 110.719 153.192 109.159C150.851 105.718 150.531 105.399 149.822 106.002C149.361 106.392 149.29 104.654 149.29 90.6088C149.29 76.6344 149.219 74.79 148.758 74.79C148.439 74.79 148.049 75.1447 147.907 75.5703C147.233 77.2728 147.056 75.0029 147.268 67.8383C147.446 61.2767 147.41 60.5319 146.843 59.858C145.424 58.1201 143.97 60.1063 143.722 64.1496C143.544 66.5969 143.438 66.9871 142.87 66.9871C142.232 66.9871 142.197 66.5969 142.197 61.4541V55.9565L143.261 55.6018C145.247 54.8925 144.963 52.9417 142.799 52.7289L141.664 52.6225L141.771 50.3171C142.09 42.4432 142.09 42.6915 141.132 42.6915C140.459 42.6915 140.21 42.9398 139.927 43.8265C139.359 45.8481 139.004 45.1033 139.004 41.8757C139.04 39.7831 139.182 38.5772 139.536 38.1516C140.281 37.123 139.82 36.4846 138.26 36.4846H136.876V31.59C136.876 27.5112 136.77 26.6245 136.238 25.9861C135.103 24.5319 133.649 24.1417 132.053 24.7801ZM134.571 50.8137C134.961 51.4166 135.138 52.7999 135.209 56.1339C135.28 60.1063 135.209 60.7092 134.677 60.993C134.323 61.2058 134.039 61.6669 134.039 62.0216C134.039 62.4117 133.932 62.7309 133.791 62.7309C133.188 62.7309 132.762 62.0925 132.124 60.3546C131.237 57.7654 131.414 51.8068 132.407 50.7073C133.294 49.7496 133.897 49.7496 134.571 50.8137ZM129.038 74.6482C129.747 75.5349 129.783 76.0669 129.783 82.6285V89.6866H127.832H125.881V82.7703C125.881 74.8255 126.059 74.1161 128.08 73.7615C128.222 73.7615 128.648 74.1516 129.038 74.6482ZM140.246 74.6127C141.132 75.4639 141.132 75.4994 141.132 82.593V89.6866H139.182C136.947 89.6866 137.196 90.325 137.018 84.3664C136.841 79.0462 137.196 75.6413 138.011 74.6127C138.863 73.5132 139.182 73.5132 140.246 74.6127ZM101.266 83.8344C102.153 86.0334 101.657 88.6226 100.344 88.6226C99.8122 88.6226 99.2802 87.3103 99.2802 85.9625C99.2802 84.792 100.096 82.593 100.557 82.593C100.663 82.593 100.983 83.1605 101.266 83.8344ZM166.705 83.196C167.45 84.0827 167.627 92.8078 166.918 93.7654C166.457 94.3684 166.279 94.4039 165.464 94.0137L164.541 93.5881V88.8708C164.541 85.1822 164.648 84.0117 165.109 83.3733C165.747 82.4511 166.066 82.4157 166.705 83.196ZM167.911 102.987C168.585 103.519 168.62 103.98 168.62 109.832V116.11H166.137H163.655L163.548 111.216C163.442 106.782 163.938 102.1 164.435 102.597C164.541 102.703 164.967 102.562 165.357 102.278C166.102 101.781 166.457 101.852 167.911 102.987ZM101.763 102.881C102.792 104.016 102.862 104.477 102.756 110.613L102.65 116.11H100.273C98.9255 116.11 97.8615 116.004 97.8615 115.827C97.8615 115.685 97.8615 112.883 97.8615 109.62C97.8615 104.477 97.9324 103.555 98.4999 102.881C99.2802 101.888 100.805 101.888 101.763 102.881ZM134.89 105.718C135.812 108.165 139.643 120.26 139.891 121.501C140.033 122.175 139.997 122.672 139.785 122.672C139.607 122.672 138.153 121.785 136.593 120.721C134.996 119.657 133.613 118.77 133.436 118.77C133.294 118.77 131.84 119.693 130.244 120.792C128.329 122.104 127.158 122.672 126.945 122.459C126.591 122.104 127.69 117.919 130.173 110.258C131.875 105.08 132.336 104.228 133.471 104.228C134.145 104.228 134.464 104.548 134.89 105.718ZM101.125 124.445C102.579 125.58 102.862 126.751 102.756 131.362L102.65 135.618L100.096 135.724L97.5068 135.831V130.688V125.58L98.6063 124.658C99.9186 123.559 99.9896 123.559 101.125 124.445ZM168.798 125.509C169.01 125.935 169.117 128.098 169.081 130.9L168.975 135.618L166.457 135.724L163.903 135.831L163.69 134.66C163.477 133.383 163.726 126.857 164.045 125.758C164.151 125.403 164.754 124.8 165.357 124.445C166.315 123.842 166.528 123.842 167.414 124.303C167.982 124.587 168.585 125.119 168.798 125.509ZM116.092 125.19C116.979 126.254 117.014 126.431 117.014 131.042V135.831L114.283 135.724L111.517 135.618L111.552 130.688C111.588 125.758 111.588 125.758 112.545 124.906C113.858 123.771 114.993 123.878 116.092 125.19ZM153.936 125.119L154.965 126.148V130.971V135.795H152.34H149.716L149.467 134.483C149.326 133.773 149.361 131.503 149.467 129.446C149.716 126.219 149.858 125.616 150.567 124.906C151.666 123.807 152.66 123.878 153.936 125.119Z" fill="white"/>
<path d="M157.661 34.0374C155.781 34.5694 154.256 36.5556 154.256 38.5773C154.256 40.2797 155.107 40.8472 157.377 40.6699C158.973 40.528 159.505 40.3152 160.214 39.4994C160.959 38.6482 161.03 38.2935 160.817 36.8748C160.392 34.1083 159.718 33.5053 157.661 34.0374Z" fill="white"/>
<path d="M179.296 34.1082C178.8 34.4983 178.551 35.1722 178.445 36.6973C178.268 39.1801 178.871 39.9604 181.176 40.2796C184.191 40.7052 185.432 39.6412 184.794 37.2648C184.084 34.7111 180.928 32.9023 179.296 34.1082Z" fill="white"/>
<path d="M244.841 68.8313C244.061 69.1859 243.28 70.4983 243.28 71.385C243.28 71.6332 243.599 72.2717 244.025 72.8037C244.734 73.6904 244.912 73.7259 246.792 73.5485C251.296 73.052 252.573 76.1731 249.984 81.2451C249.097 82.983 249.132 83.515 250.197 84.5791C250.87 85.253 251.296 85.3948 251.899 85.2175C252.325 85.0756 254.914 84.3663 257.645 83.6924L262.61 82.4155L262.717 81.0677C262.788 80.1101 262.646 79.4717 262.185 78.9751C261.617 78.3367 261.263 78.2658 258.993 78.4786L256.439 78.6914L256.652 76.7761C257.148 71.846 253.637 68.3702 248.068 68.4411C246.721 68.4411 245.231 68.6185 244.841 68.8313Z" fill="white"/>
<path d="M237.925 80.7487C235.726 81.8836 233.917 84.26 233.527 86.459C233.03 89.4738 234.875 92.524 238.209 94.1556C240.017 95.0423 240.514 95.1487 243.742 95.0777C247.679 95.0068 249.487 94.5812 250.019 93.5881C250.587 92.524 250.445 91.1763 249.665 90.396C249.062 89.793 248.494 89.6866 245.267 89.6866C240.23 89.6866 239.024 89.19 239.024 87.1329C239.024 85.8915 240.195 85.0758 242.075 85.0758C244.096 85.0758 244.983 84.0117 244.77 81.8127C244.699 81.1388 242.004 79.7556 240.727 79.7556C240.23 79.7556 238.953 80.2166 237.925 80.7487Z" fill="white"/>
<path d="M189.263 91.9567C186.887 92.8079 185.716 94.0847 184.865 96.7094C184.12 99.0857 184.546 101.71 186.142 103.945C187.703 106.25 198.733 116.997 199.478 116.997C199.833 116.997 202.848 114.266 206.394 110.684C213.701 103.342 214.8 101.71 214.446 98.3409C214.162 95.4325 212.85 93.5172 210.473 92.3113C207.21 90.7153 204.089 91.4601 201.181 94.5458L199.655 96.1419L197.705 94.1911C195.08 91.5665 192.384 90.8571 189.263 91.9567Z" fill="white"/>
<path d="M74.4174 96.3191C71.0125 99.6886 68.7425 101.391 67.7849 101.391C67.3948 101.391 67.3593 100.894 67.5721 98.9792C67.714 97.6669 67.8204 96.2836 67.7849 95.8935C67.6785 94.1555 64.5928 93.7654 63.4223 95.3615C63.0677 95.858 62.3938 97.6669 61.9682 99.4403L61.1524 102.632L54.1297 102.81C47.2489 102.987 47.0716 103.023 46.3977 103.838C45.5465 104.867 45.5465 105.541 46.3977 106.924C47.2135 108.272 48.1711 108.485 54.2716 108.485H58.776L59.7691 111.038C62.5711 118.026 63.777 119.551 66.047 118.983C67.643 118.593 67.7849 117.848 67.3238 112.563C67.0046 109.159 67.0046 107.633 67.2529 107.385C67.4657 107.172 68.7071 106.64 69.9839 106.179C71.2608 105.718 72.8214 105.044 73.3889 104.69C74.8076 103.803 80.3761 97.6314 81.1209 96.1418C81.6529 95.0777 81.6529 94.9358 80.9435 94.0137C80.4825 93.4107 79.844 93.0206 79.0992 92.9496C78.0706 92.8432 77.6096 93.1979 74.4174 96.3191Z" fill="white"/>
<path d="M224.199 96.1773C223.029 97.4187 223.17 98.9793 224.518 100.114C225.44 100.895 225.937 101.036 227.852 101.036H230.087L231.541 103.377C232.321 104.654 232.995 105.825 232.995 106.002C232.995 106.179 232.144 106.569 231.151 106.924C225.689 108.698 221.716 111.358 218.595 115.33C215.084 119.834 213.559 123.842 213.239 129.588C213.027 134.128 213.7 137.462 215.616 141.293C220.085 150.16 228.349 155.302 238.244 155.338C245.125 155.373 250.516 153.245 255.411 148.599C258.638 145.549 260.27 143.101 261.618 139.448C262.575 136.824 263.604 130.794 263.249 129.836C262.788 128.524 261.972 127.992 260.447 127.992C258.709 127.992 257.645 129.021 257.255 131.042C257.149 131.716 256.901 132.319 256.759 132.426C256.368 132.674 250.906 130.936 250.977 130.581C251.013 130.439 251.616 129.34 252.325 128.169C254.311 124.835 254.631 123.346 254.985 114.514C255.163 110.116 255.34 105.931 255.34 105.186C255.34 103.413 254.347 102.455 252.573 102.455C250.587 102.455 249.913 103.377 249.736 106.179L249.594 108.414L247.218 107.598C245.941 107.137 243.99 106.605 242.855 106.357C240.869 105.966 240.869 105.966 236.223 100.646L231.541 95.3615H228.242C225.263 95.3615 224.873 95.4325 224.199 96.1773ZM244.061 113.131C245.302 113.521 246.863 114.089 247.537 114.443C248.743 115.046 248.778 115.117 248.885 117.352C249.027 119.799 248.424 123.204 247.856 123.594C247.643 123.7 246.828 123.168 246.047 122.353C242.323 118.664 236.258 118.132 231.576 121.076C227.107 123.913 225.192 130.368 227.427 135.228C228.632 137.817 230.832 140.158 233.101 141.151C234.591 141.825 235.549 142.002 237.961 141.967C241.827 141.967 244.664 140.796 247.005 138.207L248.566 136.469L250.977 137.001C254.418 137.71 255.34 138.136 255.34 138.987C255.34 139.377 255.198 139.697 255.056 139.697C254.914 139.697 254.489 140.229 254.099 140.832C253.744 141.47 252.538 142.889 251.403 143.988C241.366 153.742 224.234 149.344 220.156 135.972C218.169 129.482 220.014 122.565 225.086 117.423C229.803 112.634 237.251 110.932 244.061 113.131ZM240.337 125.864C243.139 127.105 244.167 129.978 242.926 132.922C241.968 135.121 240.514 135.937 237.712 135.937C236.152 135.937 235.691 135.795 234.733 134.908C232.357 132.638 231.931 129.766 233.633 127.531C235.407 125.19 237.677 124.623 240.337 125.864Z" fill="white"/>
<path d="M14.6893 108.343C7.98587 115.224 6.14154 117.281 6.0706 118.132C5.9642 119.054 6.74449 119.976 14.2282 127.566C18.7682 132.177 22.8115 136.114 23.2371 136.292C23.6627 136.469 24.3721 136.504 24.8687 136.398C25.3652 136.256 29.3731 132.496 34.1258 127.673C41.1485 120.579 42.5317 119.019 42.5317 118.167C42.4963 117.352 40.9357 115.578 33.8775 108.378C26.5356 100.93 25.1169 99.6176 24.2302 99.6176C23.3435 99.6176 21.9248 100.93 14.6893 108.343ZM26.5002 108.13C27.4933 109.123 28.3445 110.081 28.3445 110.293C28.3445 110.471 27.3869 111.606 26.2519 112.741L24.1238 114.833L23.0598 113.876C22.4568 113.379 21.9603 112.741 21.9603 112.492C21.9603 112.28 21.5701 111.783 21.0736 111.393C20.577 111.003 20.1869 110.542 20.1869 110.364C20.1869 109.903 23.8046 106.357 24.2657 106.357C24.443 106.357 25.4716 107.172 26.5002 108.13ZM18.7327 116.075C20.577 117.955 20.648 118.061 20.1159 118.841C19.2292 120.154 16.9948 122.317 16.5337 122.317C16.2854 122.317 15.2213 121.359 14.1928 120.154C12.313 118.061 12.313 118.025 12.9514 117.281C14.2282 115.862 16.1081 114.195 16.4627 114.159C16.6755 114.159 17.7041 115.011 18.7327 116.075ZM34.3386 116.075L36.2539 118.025L34.9416 119.622C34.1967 120.544 33.4874 121.253 33.3455 121.253C33.2036 121.253 32.8844 121.608 32.6716 122.033C32.3169 122.814 32.246 122.778 30.1534 120.579C28.9475 119.338 27.9898 118.167 27.9898 117.99C27.9898 117.564 31.6076 114.159 32.0687 114.159C32.2815 114.159 33.31 115.046 34.3386 116.075ZM24.9041 122.494C25.1879 122.778 25.5425 122.885 25.6844 122.743C25.8618 122.601 25.8618 122.672 25.7554 122.885C25.6489 123.097 26.0746 123.807 26.7485 124.445C27.4223 125.119 27.9898 125.828 27.9898 126.006C27.9898 126.396 26.2164 128.382 24.8687 129.553C23.9819 130.333 24.3366 130.581 21.4637 127.389L20.1159 125.899L21.9957 123.913C22.9888 122.849 23.9465 121.962 24.1238 121.962C24.2657 121.962 24.6204 122.211 24.9041 122.494Z" fill="white"/>
<path d="M5.99992 101.285C4.12011 103.661 7.41864 106.711 9.54672 104.583C10.4689 103.661 10.4689 101.71 9.61766 100.93C8.58908 99.9723 6.88662 100.15 5.99992 101.285Z" fill="white"/>
<path d="M257.114 120.189C255.092 122.211 257.646 125.509 259.915 123.842C261.05 122.956 261.334 121.147 260.448 120.154C259.667 119.267 258 119.302 257.114 120.189Z" fill="white"/>
<path d="M63.2804 124.268C61.8617 125.651 62.1455 127.673 63.8479 128.524C66.1179 129.73 68.4233 128.489 68.4233 126.077C68.4233 123.63 65.0893 122.424 63.2804 124.268Z" fill="white"/>
<path d="M195.966 124.126C194.725 125.119 194.69 126.964 195.966 128.205C196.924 129.198 198.201 129.163 199.371 128.099C200.613 126.999 200.187 124.268 198.697 123.7C197.456 123.239 197.03 123.31 195.966 124.126Z" fill="white"/>
<path d="M42.3189 130.298C41.716 130.688 41.5386 131.326 41.3258 133.312C41.113 135.795 41.0775 135.866 38.4884 138.916C37.0697 140.619 34.9771 143.172 33.8775 144.627L31.8913 147.251V151.933C31.8913 154.522 31.7849 161.403 31.6431 167.291L31.4303 178.002H30.2243H29.0539V171.086C29.0539 164.631 29.0184 164.169 28.38 163.815C27.2805 163.247 5.60954 163.318 4.79377 163.921C4.22628 164.347 4.15535 164.985 4.15535 170.093C4.19082 177.541 4.08441 178.179 2.7721 178.215C0.856824 178.286 0.679484 178.747 0.679484 183.464C0.679484 188.394 0.57308 188.11 4.47456 192.402C8.26964 196.587 12.7386 201.907 12.7386 202.191C12.7386 202.369 11.9583 202.475 11.0007 202.475C8.73072 202.475 7.41841 203.468 7.41841 205.17C7.41841 206.483 8.41151 207.795 9.44008 207.831C9.79476 207.831 25.7554 207.831 44.9436 207.866C77.8933 207.902 79.8441 207.866 80.4825 207.263C81.5111 206.341 81.4401 204.248 80.3761 203.255C79.7022 202.617 79.1347 202.475 77.3613 202.475C76.1554 202.475 75.1623 202.369 75.1623 202.262C75.1623 202.156 75.6234 201.553 76.1909 200.95C77.9288 199.035 86.2993 189.316 86.8668 188.536C87.5406 187.614 87.647 179.35 86.9732 178.676C86.7604 178.463 85.9091 178.286 85.1288 178.286L83.6746 178.321V171.263C83.6746 164.631 83.6392 164.169 83.0007 163.815C82.5751 163.602 78.2126 163.46 71.3672 163.46C62.0391 163.46 60.3012 163.531 59.6273 164.028C58.8825 164.56 58.847 164.737 58.847 171.405V178.25L57.783 178.286L56.7189 178.321V171.334C56.6835 165.695 56.5771 164.205 56.1515 163.637C55.7258 163.07 55.6549 161.545 55.6549 154.983C55.7258 145.762 56.3643 147.535 50.3702 140.299L46.6106 135.795L46.3978 133.419C46.2204 131.574 46.0076 130.936 45.3692 130.404C44.4115 129.624 43.312 129.588 42.3189 130.298ZM45.2273 142.605C47.1426 144.662 48.5968 146.648 48.313 146.932C48.1712 147.038 46.1849 147.145 43.8795 147.145C40.5455 147.145 39.6234 147.038 39.4815 146.613C39.3041 146.187 43.0283 141.222 43.5958 141.151C43.7022 141.115 44.447 141.789 45.2273 142.605ZM50.6184 158.034L50.512 163.283L43.8795 163.389L37.2115 163.46V158.14V152.82H43.9505H50.7248L50.6184 158.034ZM23.911 169.49C24.0174 169.702 24.0174 171.76 23.8756 174.101L23.6273 178.357H16.6046H9.54649V173.994C9.54649 171.582 9.65289 169.49 9.79476 169.383C10.1849 168.993 23.6628 169.1 23.911 169.49ZM51.3278 173.639L51.2214 178.179L44.0569 178.286L36.8569 178.357V173.746V169.135H44.1278H51.4342L51.3278 173.639ZM78.2835 173.533C78.3544 176.69 78.248 177.825 77.9288 178.073C77.6805 178.215 74.4884 178.357 70.8352 178.357H64.1672V173.994C64.1672 171.582 64.2736 169.49 64.4155 169.348C64.5574 169.206 67.714 169.135 71.4382 169.206L78.1771 169.312L78.2835 173.533ZM81.8303 184.989L81.7239 186.692L44.0569 186.798L6.4253 186.869L6.17703 185.805C6.03515 185.237 6.03515 184.422 6.17703 184.032C6.38983 183.322 6.56717 183.322 44.1633 183.322H81.9367L81.8303 184.989ZM45.0145 193.111C47.3199 194.034 48.1712 196.587 46.9652 198.964C46.3268 200.205 45.1918 200.702 43.1702 200.702C40.4746 200.702 38.6303 197.616 39.6943 194.885C39.9071 194.282 40.581 193.679 41.5386 193.253C43.383 192.402 43.2411 192.402 45.0145 193.111ZM62.6776 193.502C64.6283 194.707 64.9475 198.077 63.2805 199.637C62.252 200.595 59.7692 200.95 58.4923 200.276C57.251 199.637 56.2224 197.438 56.5061 195.949C56.8253 194.317 57.3928 193.643 59.0244 193.076C60.514 192.544 61.3298 192.65 62.6776 193.502ZM29.2667 194.104C32.5298 197.368 28.4155 202.475 24.4431 200.099C22.3859 198.893 21.9958 195.807 23.6982 193.998C24.5849 193.076 24.9751 192.899 26.3938 192.899C27.8125 192.899 28.2381 193.076 29.2667 194.104Z" fill="white"/>
<path d="M7.77361 134.979C6.24848 135.547 5.43272 137.604 6.28395 138.845C6.63863 139.413 7.98641 140.051 8.76671 140.051C9.75981 140.051 10.9657 138.562 10.9657 137.32C10.9657 135.795 9.19233 134.483 7.77361 134.979Z" fill="white"/>
<path d="M60.9748 135.511C60.0527 136.504 60.0527 138.42 60.9748 139.342C61.6487 140.016 62.1453 140.051 69.4162 140.051C77.0418 140.051 77.1837 140.051 77.9285 139.236C78.9571 138.136 78.9571 136.398 77.9285 135.44C77.1837 134.767 76.7226 134.731 69.4517 134.731C61.9325 134.731 61.6842 134.767 60.9748 135.511Z" fill="white"/>
<path d="M187.418 135.618C186.354 136.682 186.283 137.888 187.276 139.129L187.986 140.051H195.576C202.244 140.051 203.201 139.98 203.875 139.413C204.939 138.562 205.081 136.753 204.195 135.618L203.521 134.731H195.895C188.269 134.731 188.269 134.731 187.418 135.618Z" fill="white"/>
<path d="M185.006 146.506C184.687 146.755 184.262 147.428 184.049 147.996C183.481 149.521 184.404 150.585 187.525 152.075L190.078 153.316L190.007 160.055L189.901 166.829L186 167.007C181.779 167.22 180.431 167.681 179.119 169.348C178.268 170.412 178.126 172.398 178.87 173.001C179.615 173.604 258.212 173.568 258.603 172.93C258.744 172.717 258.886 172.043 258.886 171.511C258.886 168.851 256.439 167.007 252.892 167.007H250.729V165.801C250.729 162.822 248.849 161.296 246.118 162.041C244.486 162.467 243.99 163.212 243.99 165.198V166.652H237.286H230.618L230.406 165.056C230.335 164.169 229.98 163.141 229.661 162.786C228.809 161.864 227.142 161.616 225.724 162.183C224.305 162.786 223.773 163.673 223.773 165.375V166.652H215.261H206.748V165.056C206.748 162.857 205.897 162.041 203.627 162.041C201.393 162.041 200.364 163.034 200.364 165.162V166.652H197.881H195.399V159.984V153.316L197.917 152.075C200.648 150.762 201.428 149.982 201.428 148.563C201.428 147.357 200.08 146.081 198.839 146.081C198.307 146.081 196.746 146.648 195.363 147.357L192.845 148.599L189.937 147.357C186.744 145.974 185.929 145.832 185.006 146.506Z" fill="white"/>
<path d="M88.2857 147.393C86.2285 148.138 85.9093 150.479 87.5054 152.678C90.2719 156.437 93.0384 158.459 96.798 159.417C101.054 160.481 105.523 159.488 109.389 156.508C114.78 152.429 117.157 152.288 121.732 155.763C126.166 159.133 129.145 160.161 133.401 159.807C136.38 159.558 139.253 158.282 142.587 155.763C147.127 152.323 150.426 152.465 155.214 156.295C160.073 160.197 165.641 160.871 171.281 158.211C174.012 156.934 178.233 152.713 178.552 150.904C178.871 149.237 178.339 147.96 177.062 147.464C175.502 146.896 174.508 147.393 171.884 150.018C168.656 153.245 167.805 153.671 164.719 153.671C162.024 153.671 160.818 153.245 158.725 151.401C152.518 145.939 144.999 145.868 138.65 151.188C136.238 153.245 133.685 154.061 130.918 153.742C128.577 153.458 128.01 153.174 125.527 151.046C121.838 147.889 118.114 146.684 114.177 147.464C111.233 148.067 109.992 148.634 107.261 150.691C104.211 152.997 103.324 153.422 101.161 153.742C98.1813 154.132 96.1241 153.21 93.6768 150.443C91.0877 147.535 89.8463 146.825 88.2857 147.393Z" fill="white"/>
<path d="M14.2638 150.337C12.6677 151.046 11.5682 152.465 10.9298 154.593C10.1495 157.182 11.8519 160.445 14.6894 161.722C16.6046 162.609 17.5977 162.573 19.7613 161.474C23.1662 159.771 24.3367 156.154 22.5633 152.784C21.0027 149.876 17.5268 148.847 14.2638 150.337Z" fill="white"/>
<path d="M68.2458 150.16C67.4655 150.443 66.7916 150.692 66.7207 150.692C66.6852 150.692 66.1532 151.436 65.5857 152.359C64.2734 154.416 64.167 156.792 65.2665 159.062C65.7985 160.232 66.4015 160.8 67.8202 161.474C70.0902 162.609 71.1897 162.644 73.3887 161.509C77.0064 159.665 78.2123 155.657 76.0843 152.465C74.4173 149.947 71.367 149.06 68.2458 150.16Z" fill="white"/>
<path d="M110.701 165.482C110.346 166.049 109.105 168.213 108.005 170.376C106.87 172.504 105.842 174.384 105.7 174.526C105.558 174.668 103.465 175.271 101.054 175.874C98.6063 176.477 96.1945 177.115 95.6624 177.328C93.9245 178.037 94.3501 179.172 97.8969 183.5L101.125 187.401L100.912 189.352C100.805 190.416 100.628 192.757 100.486 194.53C100.131 199.567 100.876 199.85 107.438 197.084C112.084 195.168 111.8 195.168 114.106 196.268C117.085 197.722 120.455 198.928 121.412 198.928C121.838 198.928 122.512 198.609 122.831 198.254C123.363 197.651 123.398 197.013 123.186 192.296L122.937 187.046L125.207 184.244C126.449 182.719 127.938 180.839 128.541 180.059L129.605 178.64L128.648 177.825C128.009 177.293 126.236 176.69 122.937 175.909L118.149 174.774L115.915 170.27C114.709 167.787 113.467 165.482 113.184 165.127C112.403 164.24 111.481 164.382 110.701 165.482ZM113.467 177.576L114.709 179.953L117.546 180.414C119.107 180.662 120.455 180.946 120.526 181.052C120.632 181.123 120.242 181.655 119.745 182.187C119.213 182.755 118.788 183.358 118.788 183.606C118.788 183.854 118.646 184.032 118.433 184.032C118.256 184.032 117.83 184.422 117.546 184.883C117.05 185.628 117.014 186.16 117.333 188.501C117.546 189.99 117.653 191.302 117.582 191.373C117.511 191.48 116.198 190.983 114.673 190.309L111.907 189.103L109.282 190.309C107.863 190.948 106.622 191.48 106.516 191.48C106.409 191.48 106.445 190.061 106.551 188.323L106.799 185.167L105.168 183.393C104.281 182.435 103.536 181.478 103.536 181.3C103.536 181.088 104.778 180.698 106.303 180.449L109.034 179.953L109.814 178.357C111.127 175.697 111.765 174.739 111.978 174.987C112.12 175.129 112.794 176.3 113.467 177.576Z" fill="white"/>
<path d="M92.2574 165.588C91.1225 166.652 91.1934 168.497 92.3993 169.454C93.6407 170.447 94.8466 170.376 95.9106 169.312C97.1166 168.142 97.0811 166.581 95.8752 165.624C94.6693 164.666 93.2505 164.666 92.2574 165.588Z" fill="white"/>
<path d="M141.949 165.092C141.736 165.198 140.104 166.936 138.331 168.958C134.819 172.93 134.394 174.101 135.813 175.519C137.16 176.867 138.295 176.335 141.487 172.93L143.403 170.873L145.885 173.569C148.652 176.512 149.468 176.796 150.886 175.342C152.376 173.888 152.128 173.178 148.652 169.135C145.46 165.375 144.821 164.879 143.509 164.914C142.871 164.914 142.197 165.021 141.949 165.092Z" fill="white"/>
<path d="M153.086 165.517C152.376 166.298 152.305 167.433 152.908 168.532C153.901 170.412 158.973 176.229 159.789 176.442C161.669 176.903 162.165 176.512 167.663 169.844C168.089 169.312 168.621 168.39 168.798 167.787C169.224 166.262 168.16 164.879 166.564 164.879C165.641 164.879 165.003 165.305 163.017 167.397L160.569 169.951L159.647 168.745C157.732 166.191 156.065 164.879 154.824 164.879C154.15 164.879 153.405 165.163 153.086 165.517Z" fill="white"/>
<path d="M177.736 178.428C177.416 178.747 177.31 182.081 177.31 191.232V203.61L178.339 204.638C178.906 205.206 179.615 205.667 179.899 205.667C180.218 205.667 180.573 206.305 180.857 207.228C181.992 211.306 186.283 212.441 188.979 209.391L190.043 208.15H219.127H248.211L248.849 209.214C249.7 210.703 252.006 211.555 253.673 211.023C255.233 210.491 256.617 209.001 257.078 207.334C257.29 206.483 257.929 205.525 258.78 204.78L260.128 203.61L260.234 191.515C260.305 183.393 260.199 179.208 259.951 178.711C259.596 178.037 259.206 178.002 249.913 178.002C242.855 178.002 240.124 178.108 239.805 178.428C239.485 178.747 239.379 181.939 239.379 190.664V202.475L222.354 202.546C212.991 202.581 204.159 202.652 202.776 202.652H200.187L200.01 190.664C199.797 177.222 199.974 178.002 197.101 178.002C194.228 178.002 194.335 177.541 194.335 190.735V202.368L191.426 202.546C189.795 202.652 187.525 202.652 186.354 202.51C184.475 202.333 184.155 202.191 183.446 201.092C182.737 200.063 182.63 199.425 182.63 196.765V193.608H186.142C189.547 193.608 189.688 193.572 190.398 192.686C191.284 191.586 191.355 190.167 190.575 189.174C190.114 188.571 189.547 188.465 186.354 188.359L182.63 188.217V185.769C182.63 184.067 182.772 183.322 183.091 183.287C183.304 183.251 184.829 183.216 186.39 183.18C188.695 183.145 189.44 183.003 190.043 182.471C191.001 181.584 191.036 179.669 190.079 178.711C189.44 178.073 188.908 178.002 183.765 178.002C179.864 178.002 178.019 178.144 177.736 178.428ZM253.673 183.322H255.02L254.914 185.876L254.808 188.465L252.325 188.359C250.977 188.323 249.133 188.359 248.282 188.465C247.005 188.678 246.685 188.855 246.366 189.742C246.153 190.309 245.763 190.77 245.515 190.77C245.16 190.77 245.054 189.848 245.054 187.117C245.054 185.096 245.16 183.322 245.338 183.145C245.48 183.003 247.111 182.967 248.955 183.109C250.8 183.216 252.928 183.322 253.673 183.322ZM251.899 193.608H254.985V196.729C254.985 199.779 254.95 199.921 253.779 201.269L252.573 202.652H248.743H244.912L244.948 201.659C244.983 201.127 244.983 198.999 245.018 196.942L245.054 193.147L246.934 193.395C247.927 193.501 250.161 193.608 251.899 193.608Z" fill="white"/>
<path d="M204.124 178.676C203.237 179.669 203.308 181.407 204.266 182.436C205.082 183.287 205.223 183.322 210.366 183.322H215.616V185.805V188.288H210.366C205.578 188.288 205.046 188.359 204.337 188.997C203.379 189.919 203.344 191.48 204.23 192.579L204.904 193.431H219.694H234.485L235.158 192.579C235.974 191.586 236.01 190.132 235.265 189.068C234.733 188.323 234.556 188.288 227.675 188.288H220.617L220.404 187.117C220.262 186.479 220.226 185.379 220.297 184.706L220.404 183.5L227.568 183.322C234.201 183.145 234.768 183.109 235.265 182.436C236.045 181.407 235.974 179.563 235.123 178.711C234.449 178.038 233.953 178.002 219.588 178.002C205.436 178.002 204.691 178.038 204.124 178.676Z" fill="white"/>
<path d="M138.65 183.287C135.67 184.209 133.613 186.266 132.762 189.245C131.591 193.289 132.762 196.835 136.486 200.524L138.65 202.617L136.841 204.461C135.457 205.844 134.855 206.235 134.216 206.093C131.875 205.667 129.073 207.902 129.073 210.207C129.073 215.066 135.493 215.988 137.337 211.377C137.657 210.633 138.827 209.143 139.926 208.114C141.026 207.05 142.161 205.986 142.409 205.738C143.083 205.1 143.154 205.135 145.282 207.086C146.346 208.043 147.481 208.859 147.8 208.859C148.616 208.859 159.859 198.715 161.03 196.942C163.229 193.537 163.477 190.558 161.846 187.33C159.434 182.613 153.546 181.584 149.467 185.167L147.907 186.55L146.098 185.131C143.615 183.18 141.097 182.542 138.65 183.287ZM140.352 187.578C141.31 188.465 141.31 188.926 140.423 190.061C140.033 190.593 139.714 191.515 139.714 192.296C139.714 193.466 139.962 193.892 141.452 195.346L143.154 197.013L142.125 198.183C141.132 199.283 140.99 199.318 140.139 198.893C139.607 198.644 139.075 198.467 138.969 198.502C138.366 198.609 136.167 194.672 135.954 193.147C135.67 191.125 136.522 188.642 137.834 187.578C138.969 186.692 139.394 186.692 140.352 187.578Z" fill="white"/>
<path d="M97.2943 203.113C97.0815 203.255 96.7268 203.716 96.4786 204.142C95.9465 205.206 96.3722 206.164 98.6421 208.895C99.6707 210.136 101.125 211.909 101.87 212.867C103.466 214.818 104.814 215.634 105.878 215.243C106.658 214.924 108.821 212.619 112.084 208.611C113.61 206.66 114.177 205.703 114.177 204.887C114.177 203.574 113.361 202.865 111.801 202.83C110.595 202.83 109.602 203.61 106.764 206.908L105.239 208.682L104.352 207.618C101.48 204.177 99.919 202.83 98.8194 202.83C98.181 202.83 97.5071 202.971 97.2943 203.113Z" fill="white"/>
</svg>
